<svg width="100" height="100" viewBox="0 0 100 100" xmlns="http://www.w3.org/2000/svg">
  <defs>
    <linearGradient id="quillGradient" x1="0%" y1="0%" x2="100%" y2="100%">
      <stop offset="0%" style="stop-color:#1E3A8A;stop-opacity:1" />
      <stop offset="100%" style="stop-color:#2DD4BF;stop-opacity:1" />
    </linearGradient>
     <filter id="glow" x="-50%" y="-50%" width="200%" height="200%">
      <feGaussianBlur stdDeviation="2" result="coloredBlur"/>
      <feMerge>
        <feMergeNode in="coloredBlur"/>
        <feMergeNode in="SourceGraphic"/>
      </feMerge>
    </filter>
  </defs>
  
  <!-- Orbital element -->
  <path d="M 50 10 A 40 40 0 1 1 49 10" stroke="url(#quillGradient)" stroke-width="2" fill="none" opacity="0.6" filter="url(#glow)" />
  <path d="M 20 50 A 30 30 0 1 0 21 50" stroke="#2DD4BF" stroke-width="1.5" fill="none" opacity="0.4" transform="rotate(45 50 50)" />

  <!-- Quill body -->
  <path d="M 35 75 Q 40 50 50 30 Q 60 50 65 75 Z" fill="url(#quillGradient)" />
  
  <!-- Quill Feather (AI element) -->
  <g transform="translate(0, -10)">
    <!-- Main feather structure -->
    <path d="M 50 30 Q 55 40 65 45 Q 58 48 50 55 Q 42 48 35 45 Q 45 40 50 30 Z" fill="none" stroke="#1E3A8A" stroke-width="1.5" />
    
    <!-- Circuit/Neural pattern lines -->
    <line x1="50" y1="35" x2="45" y2="42" stroke="#2DD4BF" stroke-width="1" />
    <line x1="50" y1="35" x2="55" y2="42" stroke="#2DD4BF" stroke-width="1" />
    <line x1="46" y1="40" x2="42" y2="46" stroke="#2DD4BF" stroke-width="1" opacity="0.8"/>
    <line x1="54" y1="40" x2="58" y2="46" stroke="#2DD4BF" stroke-width="1" opacity="0.8"/>
    <line x1="48" y1="45" x2="45" y2="50" stroke="#2DD4BF" stroke-width="1" opacity="0.6"/>
    <line x1="52" y1="45" x2="55" y2="50" stroke="#2DD4BF" stroke-width="1" opacity="0.6"/>
    
    <!-- Small nodes -->
    <circle cx="45" cy="42" r="1" fill="#2DD4BF" />
    <circle cx="55" cy="42" r="1" fill="#2DD4BF" />
    <circle cx="50" cy="35" r="1.5" fill="#2DD4BF" />
     <circle cx="42" cy="46" r="1" fill="#2DD4BF" opacity="0.8"/>
     <circle cx="58" cy="46" r="1" fill="#2DD4BF" opacity="0.8"/>
  </g>

  <!-- Quill Tip (subtle upward arrow/checkmark) -->
   <path d="M 48 73 L 50 78 L 55 70" fill="none" stroke="#FFFFFF" stroke-width="2" stroke-linecap="round" stroke-linejoin="round" />
</svg>
