<svg width="100" height="100" viewBox="0 0 100 100" fill="none" xmlns="http://www.w3.org/2000/svg">
  <defs>
    <linearGradient id="quillGradient" x1="0%" y1="0%" x2="100%" y2="100%">
      <stop offset="0%" style="stop-color:#1E3A8A;stop-opacity:1" />
      <stop offset="100%" style="stop-color:#2DD4BF;stop-opacity:1" />
    </linearGradient>
    <clipPath id="quillClip">
      <path d="M62.3,21.8C53.5,17.4,40.5,22.3,32.7,30.1c-4.9,4.9-7,11.3-6.4,17.7c0.2,2.4,0.7,4.7,1.6,6.9
        L25,58.5l-2.5,10.9c-0.4,1.8,0.2,3.6,1.4,4.9c1.2,1.2,2.9,1.8,4.6,1.6l10.9-2.5l3.8-2.9c2.2,0.9,4.5,1.4,6.9,1.6
        c6.4,0.6,12.8-1.5,17.7-6.4c7.8-7.8,12.7-20.8,8.2-29.6L62.3,21.8z M41.1,62.2c-1.8-0.2-3.5-0.6-5.2-1.2l-5.9,4.4l-7.6,1.7
        l1.7-7.6l4.4-5.9c-0.6-1.7-1-3.4-1.2-5.2c-0.5-5.1,1.2-10.2,4.8-13.8c6.1-6.1,16.6-7,23.7-2.5L41.1,62.2z M63,49.1
        c-4.3,4.3-10,6.1-15.7,5.2l-19-19c0.9-5.7,2.7-11.4,5.2-15.7c3.7-3.7,8.7-5.4,13.8-4.8C52.4,14.3,57.4,16,61.1,19.7
        C67.3,25.9,68.1,36.4,63,49.1z"/>
      <path d="M59.5,29.5 l5,-5 a2,2 0 0 1 2.8,0 l5,5 a2,2 0 0 1 0,2.8 l-5,5 a2,2 0 0 1 -2.8,0 l-5,-5 a2,2 0 0 1 0,-2.8z" fill="#2DD4BF"/>
    </clipPath>
  </defs>

  <!-- Orbital Motion -->
  <circle cx="50" cy="50" r="45" stroke="#1E3A8A" stroke-width="1.5" stroke-opacity="0.5" stroke-dasharray="5 5" transform="rotate(-30 50 50)">
    <animateTransform attributeName="transform" type="rotate" from="-30 50 50" to="330 50 50" dur="10s" repeatCount="indefinite"/>
  </circle>
  <circle cx="50" cy="50" r="38" stroke="#2DD4BF" stroke-width="1" stroke-opacity="0.7" stroke-dasharray="3 7" transform="rotate(15 50 50)">
     <animateTransform attributeName="transform" type="rotate" from="15 50 50" to="375 50 50" dur="12s" repeatCount="indefinite"/>
  </circle>

  <!-- Quill Body with Gradient and Clip Path -->
  <g clip-path="url(#quillClip)">
    <rect x="0" y="0" width="100" height="100" fill="url(#quillGradient)"/>
    <!-- Circuit/Neural Network overlay on feather part -->
    <g opacity="0.3" fill="none" stroke="#FFFFFF" stroke-width="0.7">
      <path d="M30 55 Q 35 50, 40 55 T 50 55"/>
      <path d="M32 50 Q 37 45, 42 50 T 52 50"/>
      <path d="M35 45 Q 40 40, 45 45 T 55 45"/>
      <circle cx="30" cy="55" r="1"/> <circle cx="40" cy="55" r="1"/> <circle cx="50" cy="55" r="1"/>
      <circle cx="32" cy="50" r="1"/> <circle cx="42" cy="50" r="1"/> <circle cx="52" cy="50" r="1"/>
      <circle cx="35" cy="45" r="1"/> <circle cx="45" cy="45" r="1"/> <circle cx="55" cy="45" r="1"/>
    </g>
  </g>
  
  <!-- Quill Tip as Upward Arrow/Checkmark -->
   <path d="M60 25 L66 19 L72 25 M66 19 L66 33" stroke="#1E3A8A" stroke-width="2.5" fill="none" stroke-linecap="round" stroke-linejoin="round">
      <animate attributeName="stroke" values="#1E3A8A;#2DD4BF;#1E3A8A" dur="3s" repeatCount="indefinite" />
   </path>
</svg>